#!OML:ASF E:\Style3\Style3.ASF
:FULLY-SPECIFIED
:DEGREES
3336
root -1.4806 17.1495 1.22755 -1056.61 108.189 -1085.72
lowerback 31.8882 3.05928 1.20195
upperback 5.6295 4.96604 0.133129
thorax -10.1451 2.52674 -2.37922
lowerneck -1.85092 -10.0136 -6.59277
upperneck -20.9672 -10.0459 21.3745
head -4.23298 -5.52354 8.07668
rclavicle -2.38542e-014 -2.54444e-014
rhumerus 55.1861 39.9881 -60.7051
rradius 109.88
rwrist -83.3282
rhand -4.15214 10.2645
rfingers 7.12502
rthumb 21.6079 -18.55
lclavicle -2.38542e-014 -2.54444e-014
lhumerus -46.0051 -28.4513 -266.401
lradius 58.1898
lwrist 381.361
lhand 6.12563 19.012
lfingers 7.12502
lthumb 31.443 46.3281
rfemur -61.475 -8.78979 17.8632
rtibia 58.1639
rfoot -5.79302 -9.83109
rtoes -29.5078
lfemur -52.7685 -4.86293 -12.5115
ltibia 32.9526
lfoot -8.82074 0.802565
ltoes -23.0249
3337
root -1.49431 17.1317 1.22554 -1056.47 107.808 -1085.66
lowerback 32.1258 2.93964 1.49754
upperback 5.56848 4.89674 0.0121035
thorax -10.2797 2.47993 -2.65367
lowerneck -1.77415 -9.94816 -6.39011
upperneck -21.102 -9.95478 21.173
head -4.33024 -5.48857 7.99511
rclavicle 6.36111e-015 2.38542e-014
rhumerus 53.8899 38.7344 -62.0476
rradius 107.514
rwrist -83.9464
rhand -4.43565 10.7006
rfingers 7.12502
rthumb 21.3356 -18.1448
lclavicle 6.36111e-015 2.38542e-014
lhumerus -45.3274 -29.8505 -266.328
lradius 58.3133
lwrist 381.091
lhand 5.7813 19.3094
lfingers 7.12502
lthumb 31.1149 46.689
rfemur -61.6747 -8.45298 17.8069
rtibia 58.3157
rfoot -5.92389 -9.97411
rtoes -29.5987
lfemur -53.1597 -4.62974 -12.5765
ltibia 33.5067
lfoot -8.99527 0.968038
ltoes -22.9697
3338
root -1.5085 17.1124 1.22491 -1056.29 107.404 -1085.54
lowerback 32.3382 2.81442 1.74654
upperback 5.5379 4.80948 -0.096896
thorax -10.3761 2.42824 -2.8812
lowerneck -1.77913 -9.86385 -6.38623
upperneck -21.1468 -9.83334 21.1294
head -4.36378 -5.42663 7.98681
rclavicle -6.20208e-014 5.24792e-014
rhumerus 52.7841 37.5499 -63.3213
rradius 104.918
rwrist -84.061
rhand -4.25114 10.7889
rfingers 7.12502
rthumb 21.5128 -18.0364
lclavicle -6.20208e-014 5.24792e-014
lhumerus -44.4586 -31.1502 -266.46
lradius 58.3926
lwrist 380.519
lhand 5.98585 19.7433
lfingers 7.12502
lthumb 31.3098 47.0852
rfemur -61.8743 -8.07909 17.7457
rtibia 58.4503
rfoot -5.9813 -10.0943
rtoes -29.2758
lfemur -53.573 -4.31662 -12.6647
ltibia 34.1565
lfoot -9.21259 1.07823
ltoes -22.9112
3339
root -1.52377 17.0904 1.22325 -1056.46 106.949 -1085.76
lowerback 32.6173 2.69341 1.93464
upperback 5.5091 4.70498 -0.251973
thorax -10.4995 2.36965 -3.12199
lowerneck -1.80927 -9.78744 -6.34238
upperneck -21.1719 -9.73321 21.0282
head -4.39121 -5.37326 7.94985
rclavicle -4.45278e-014 1.25632e-013
rhumerus 51.5792 36.3609 -64.8801
rradius 102.076
rwrist -83.6846
rhand -3.95585 10.6068
rfingers 7.12502
rthumb 21.7964 -18.1858
lclavicle -4.45278e-014 1.25632e-013
lhumerus -43.4253 -32.1374 -266.982
lradius 58.4215
lwrist 379.428
lhand 7.17747 19.171
lfingers 7.12502
lthumb 32.4446 46.2867
rfemur -62.0459 -7.73929 17.5423
rtibia 58.5386
rfoot -6.18712 -10.1546
rtoes -28.9397
lfemur -53.9547 -4.0988 -12.8317
ltibia 34.8713
lfoot -9.50544 1.32976
ltoes -22.9906
3340
root -1.54164 17.0638 1.21987 -1056.64 106.507 -1085.96
lowerback 32.9339 2.53806 2.17576
upperback 5.4838 4.57713 -0.41733
thorax -10.6317 2.29893 -3.39462
lowerneck -1.92629 -9.69349 -6.25892
upperneck -21.0933 -9.62983 20.8613
head -4.38031 -5.31086 7.87341
rclavicle -3.65764e-014 -2.14687e-014
rhumerus 50.3922 35.1246 -66.5347
rradius 99.1777
rwrist -83.1792
rhand -3.42087 10.4119
rfingers 7.12502
rthumb 22.31 -18.3202
lclavicle -3.65764e-014 -2.14687e-014
lhumerus -42.3342 -33.0784 -267.626
lradius 58.4189
lwrist 378.706
lhand 7.91449 19.0092
lfingers 7.12502
lthumb 33.1457 45.9785
rfemur -62.1866 -7.44404 17.3825
rtibia 58.5708
rfoot -6.46568 -10.2905
rtoes -29.3005
lfemur -54.3663 -3.84167 -13.0253
ltibia 35.6384
lfoot -9.7586 1.46602
ltoes -22.6469
3341
root -1.55856 17.0371 1.21927 -1056.81 106.019 -1086.11
lowerback 33.3132 2.40331 2.36912
upperback 5.44562 4.46236 -0.576654
thorax -10.8071 2.23362 -3.6437
lowerneck -1.8699 -9.56832 -6.05451
upperneck -21.2031 -9.46692 20.5943
head -4.48011 -5.23416 7.76848
rclavicle 3.81667e-014 5.64548e-014
rhumerus 49.4286 33.8538 -67.9492
rradius 96.195
rwrist -83.1178
rhand -2.74809 10.3553
rfingers 7.12502
rthumb 22.9557 -18.298
lclavicle 3.81667e-014 5.64548e-014
lhumerus -41.2323 -34.0047 -268.335
lradius 58.3725
lwrist 378.358
lhand 7.94623 19.3852
lfingers 7.12502
lthumb 33.1759 46.3482
rfemur -62.277 -7.06286 17.2189
rtibia 58.5563
rfoot -6.80583 -10.5348
rtoes -30.243
lfemur -54.7286 -3.5488 -13.1936
ltibia 36.3973
lfoot -10.0712 1.5711
ltoes -21.9357
3342
root -1.57733 17.0076 1.2215 -1056.98 105.586 -1086.35
lowerback 33.5874 2.23777 2.53629
upperback 5.40948 4.29973 -0.714545
thorax -10.9458 2.14798 -3.83238
lowerneck -1.75438 -9.4506 -5.94616
upperneck -21.3627 -9.30922 20.3759
head -4.59379 -5.16044 7.70091
rclavicle -7.63333e-014 -4.92986e-014
rhumerus 48.7052 32.6378 -69.1386
rradius 93.0456
rwrist -83.3864
rhand -2.06825 10.4168
rfingers 7.12502
rthumb 23.6079 -18.1539
lclavicle -7.63333e-014 -4.92986e-014
lhumerus -40.0406 -34.8389 -269.176
lradius 58.2519
lwrist 377.819
lhand 7.64917 19.3606
lfingers 7.12502
lthumb 32.8934 46.3832
rfemur -62.4829 -6.74119 17.0677
rtibia 58.5867
rfoot -6.97375 -10.7471
rtoes -31.2325
lfemur -55.1982 -3.20593 -13.4188
ltibia 37.1168
lfoot -10.3393 1.62968
ltoes -21.8136
3343
root -1.59912 16.9792 1.22362 -1057.23 105.126 -1086.76
lowerback 33.7899 2.10428 2.67888
upperback 5.36623 4.16184 -0.877008
thorax -11.0637 2.07361 -4.04013
lowerneck -1.79032 -9.36395 -5.91438
upperneck -21.4363 -9.19077 20.2536
head -4.63714 -5.09572 7.6614
rclavicle 6.36111e-015 -2.38542e-015
rhumerus 48.0494 31.351 -70.3002
rradius 89.6775
rwrist -83.3048
rhand -1.44606 10.6518
rfingers 7.12502
rthumb 24.2046 -17.8407
lclavicle 6.36111e-015 -2.38542e-015
lhumerus -38.7485 -35.7837 -270.083
lradius 58.008
lwrist 376.907
lhand 6.81781 18.8203
lfingers 7.12502
lthumb 32.1023 46.0057
rfemur -62.8498 -6.38481 16.8044
rtibia 58.6863
rfoot -7.32745 -10.7549
rtoes -29.8927
lfemur -55.745 -2.8305 -13.6984
ltibia 37.7742
lfoot -10.5218 1.6486
ltoes -21.3636
3344
root -1.61871 16.9599 1.2222 -1057.27 104.583 -1086.86
lowerback 34.0923 2.01208 2.90853
upperback 5.32979 4.10972 -1.05448
thorax -11.2012 2.03513 -4.34707
lowerneck -1.86781 -9.28823 -5.8501
upperneck -21.4395 -9.09227 20.1473
head -4.64996 -5.04094 7.6144
rclavicle 4.29375e-014 3.57812e-014
rhumerus 47.3474 29.9557 -71.7723
rradius 86.1456
rwrist -82.8488
rhand -1.01892 10.4718
rfingers 7.12502
rthumb 24.6141 -17.9656
lclavicle 4.29375e-014 3.57812e-014
lhumerus -37.3834 -36.8638 -271.041
lradius 57.7247
lwrist 376.005
lhand 5.89834 19.0177
lfingers 7.12502
lthumb 31.2264 46.3758
rfemur -63.1949 -5.93659 16.5405
rtibia 58.8008
rfoot -7.79493 -10.6102
rtoes -27.2865
lfemur -56.1197 -2.38383 -13.9383
ltibia 38.4222
lfoot -10.6653 1.75253
ltoes -21.9954
3345
root -1.63607 16.936 1.21759 -1057.52 104.013 -1087.09
lowerback 34.4752 1.8915 3.07809
upperback 5.2937 4.0068 -1.22635
thorax -11.3783 1.97472 -4.60021
lowerneck -1.96376 -9.19587 -5.84892
upperneck -21.3966 -8.98169 20.0402
head -4.64295 -4.97424 7.57386
rclavicle -2.62396e-014 2.62396e-014
rhumerus 46.639 28.65 -73.3369
rradius 82.6072
rwrist -82.2867
rhand -0.920288 9.97708
rfingers 7.12502
rthumb 24.7086 -18.4474
lclavicle -2.62396e-014 2.62396e-014
lhumerus -35.9096 -37.7281 -272.148
lradius 57.3625
lwrist 375.486
lhand 5.31363 19.6518
lfingers 7.12502
lthumb 30.6691 47.1158
rfemur -63.4507 -5.52745 16.2807
rtibia 58.937
rfoot -8.24581 -10.5721
rtoes -25.9308
lfemur -56.4193 -1.9781 -14.2114
ltibia 39.105
lfoot -10.8313 1.9273
ltoes -23.4204
3346
root -1.65406 16.9034 1.21451 -1057.63 103.524 -1087.23
lowerback 34.8104 1.75995 3.24735
upperback 5.25807 3.89587 -1.34844
thorax -11.5404 1.91109 -4.7942
lowerneck -2.16813 -9.12115 -5.65533
upperneck -21.3446 -8.91937 19.7191
head -4.63555 -4.92716 7.42498
rclavicle -4.05521e-014 -4.05521e-014
rhumerus 45.9278 27.3515 -74.7023
rradius 79.1884
rwrist -81.5643
rhand -1.3226 10.1332
rfingers 7.12502
rthumb 24.323 -18.3435
lclavicle -4.05521e-014 -4.05521e-014
lhumerus -34.267 -38.4792 -273.387
lradius 56.8671
lwrist 375.293
lhand 4.58353 19.7754
lfingers 7.12502
lthumb 29.9727 47.3676
rfemur -63.6601 -5.16608 16.1175
rtibia 59.0575
rfoot -8.64883 -10.6815
rtoes -26.0029
lfemur -56.8827 -1.60598 -14.4083
ltibia 39.9004
lfoot -11.0815 1.96661
ltoes -23.8388
3347
root -1.67628 16.8652 1.21348 -1057.99 103.023 -1087.7
lowerback 35.1126 1.62063 3.39609
upperback 5.19335 3.75543 -1.53654
thorax -11.7236 1.83148 -5.03647
lowerneck -2.35598 -9.03997 -5.36593
upperneck -21.2377 -8.8578 19.3714
head -4.62173 -4.88667 7.25001
rclavicle 5.48646e-014 4.85035e-014
rhumerus 45.3164 25.9939 -76.1353
rradius 75.7113
rwrist -80.5344
rhand -2.15859 10.0909
rfingers 7.12502
rthumb 23.5213 -18.491
lclavicle 5.48646e-014 4.85035e-014
lhumerus -32.4748 -39.092 -274.89
lradius 56.3398
lwrist 374.829
lhand 4.39282 20.0224
lfingers 7.12502
lthumb 29.7907 47.6474
rfemur -63.9764 -4.917 15.9305
rtibia 59.1922
rfoot -9.18443 -10.6526
rtoes -25.4005
lfemur -57.5148 -1.23003 -14.6592
ltibia 40.8116
lfoot -11.3681 1.8852
ltoes -22.9201
